# xmcd CD database file
#
# Track frame offsets:
#	150
#	17575
#	34353
#	45603
#	61018
#	83264
#	104208
#	122871
#	140286
#	161267
#	174617
#	192726
#	212302
#	228708
#	254872
#
# Disc length: 3646 seconds
#
# Revision: 0
# Processed by: cddbd v1.5.2PL0 Copyright (c) Steve Scherf et al.
# Submitted via: CDex 1.51
#
DISCID=d10e3c0f
DTITLE=Armando - Tutti Frutti
DYEAR=1900
DGENRE=Country
TTITLE0=New York New York
TTITLE1=Demasiado Corazon
TTITLE2=Thank God I'm A Country Boy
TTITLE3=This Is The Moment
TTITLE4=As - Stevie Wonder
TTITLE5=Bakerstreet
TTITLE6=I Feel Lonely
TTITLE7=Another Day
TTITLE8=Nuages
TTITLE9=Terang Bulan
TTITLE10=Un Dos Tres
TTITLE11=You've Got A Friend
TTITLE12=Sex Bomb
TTITLE13=Don't Let The Sun Go Down On Me
TTITLE14=Rock D.J.
EXTD=
EXTT0=
EXTT1=
EXTT2=
EXTT3=
EXTT4=
EXTT5=
EXTT6=
EXTT7=
EXTT8=
EXTT9=
EXTT10=
EXTT11=
EXTT12=
EXTT13=
EXTT14=
PLAYORDER=
